  0
SECTION
  2
HEADER
  9
$ACADVER
  1
AC1003
  9
$INSBASE
 10
0.0
 20
0.0
  9
$EXTMIN
 10
0.0
 20
-0.0
  9
$EXTMAX
 10
9.433333
 20
10.0
  9
$LIMMIN
 10
0.0
 20
0.0
  9
$LIMMAX
 10
12.0
 20
9.0
  9
$VIEWCTR
 10
7.378144
 20
4.5
  9
$VIEWSIZE
 40
9.0
  9
$SNAPMODE
 70
     0
  9
$SNAPUNIT
 10
1.0
 20
1.0
  9
$SNAPBASE
 10
0.0
 20
0.0
  9
$SNAPANG
 50
0.0
  9
$SNAPSTYLE
 70
     0
  9
$SNAPISOPAIR
 70
     0
  9
$GRIDMODE
 70
     0
  9
$GRIDUNIT
 10
0.0
 20
0.0
  9
$ORTHOMODE
 70
     0
  9
$REGENMODE
 70
     1
  9
$FILLMODE
 70
     1
  9
$QTEXTMODE
 70
     0
  9
$DRAGMODE
 70
     2
  9
$LTSCALE
 40
1.0
  9
$OSMODE
 70
     0
  9
$ATTMODE
 70
     1
  9
$TEXTSIZE
 40
0.2
  9
$TRACEWID
 40
0.2
  9
$TEXTSTYLE
  7
STANDARD
  9
$CLAYER
  8
0
  9
$CELTYPE
  6
BYLAYER
  9
$CECOLOR
 62
   256
  9
$DIMSCALE
 40
1.0
  9
$DIMASZ
 40
0.18
  9
$DIMEXO
 40
0.0625
  9
$DIMDLI
 40
0.38
  9
$DIMRND
 40
0.0
  9
$DIMDLE
 40
0.0
  9
$DIMEXE
 40
0.18
  9
$DIMTP
 40
0.0
  9
$DIMTM
 40
0.0
  9
$DIMTXT
 40
0.18
  9
$DIMCEN
 40
0.09
  9
$DIMTSZ
 40
0.0
  9
$DIMTOL
 70
     0
  9
$DIMLIM
 70
     0
  9
$DIMTIH
 70
     1
  9
$DIMTOH
 70
     1
  9
$DIMSE1
 70
     0
  9
$DIMSE2
 70
     0
  9
$DIMTAD
 70
     0
  9
$DIMZIN
 70
     0
  9
$DIMBLK
  1

  9
$DIMASO
 70
     1
  9
$DIMSHO
 70
     0
  9
$DIMPOST
  1

  9
$DIMAPOST
  1

  9
$DIMALT
 70
     0
  9
$DIMALTD
 70
     2
  9
$DIMALTF
 40
25.4
  9
$DIMLFAC
 40
1.0
  9
$LUNITS
 70
     2
  9
$LUPREC
 70
     4
  9
$AXISMODE
 70
     0
  9
$AXISUNIT
 10
0.0
 20
0.0
  9
$SKETCHINC
 40
0.1
  9
$FILLETRAD
 40
0.0
  9
$AUNITS
 70
     0
  9
$AUPREC
 70
     0
  9
$MENU
  1
ACAD
  9
$ELEVATION
 40
0.0
  9
$THICKNESS
 40
0.0
  9
$VIEWDIR
 10
0.0
 20
0.0
 30
1.0
  9
$LIMCHECK
 70
     0
  9
$BLIPMODE
 70
     1
  9
$CHAMFERA
 40
0.0
  9
$CHAMFERB
 40
0.0
  9
$FASTZOOM
 70
     1
  9
$SKPOLY
 70
     0
  9
$TDCREATE
 40
2459694.4766992394
  9
$TDUPDATE
 40
2459694.4766992394
  9
$TDINDWG
 40
0.0000000000
  9
$TDUSRTIMER
 40
0.0000000000
  9
$USRTIMER
 70
     1
  9
$ANGBASE
 50
0.0
  9
$ANGDIR
 70
     0
  9
$PDMODE
 70
     0
  9
$PDSIZE
 40
0.0
  9
$PLINEWID
 40
0.0
  9
$COORDS
 70
     0
  9
$USERI1
 70
     0
  9
$USERI2
 70
     0
  9
$USERI3
 70
     0
  9
$USERI4
 70
     0
  9
$USERI5
 70
     0
  9
$USERR1
 40
0.0
  9
$USERR2
 40
0.0
  9
$USERR3
 40
0.0
  9
$USERR4
 40
0.0
  9
$USERR5
 40
0.0
  0
ENDSEC
  0
SECTION
  2
TABLES
  0
TABLE
  2
LTYPE
 70
     1
  0
LTYPE
  2
CONTINUOUS
 70
    64
  3
Solid line
 72
    65
 73
     0
 40
0.0
  0
ENDTAB
  0
TABLE
  2
LAYER
 70
     2
  0
LAYER
  2
0
 70
     0
 62
     7
  6
CONTINUOUS
  0
LAYER
  2
DEFPOINTS
 70
     0
 62
    -7
  6
CONTINUOUS
  0
ENDTAB
  0
TABLE
  2
STYLE
 70
     2
  0
STYLE
  2
STANDARD
 70
     0
 40
0.0
 41
1.0
 50
0.0
 71
     0
 42
0.2
  3
txt
  4

  0
STYLE
  2

 70
     1
 40
0.0
 41
1.0
 50
0.0
 71
     0
 42
0.2
  3
ES
  4

  0
ENDTAB
  0
TABLE
  2
VIEW
 70
     0
  0
ENDTAB
  0
ENDSEC
  0
SECTION
  2
BLOCKS
  0
BLOCK
  8
0
  2
BLOCK1
 70
     0
 10
6.0
 20
1.0
  0
LINE
  8
0
 10
6.0
 20
1.0
 11
7.0
 21
2.0
  0
ENDBLK
  8
0
  0
BLOCK
  8
0
  2
BLOCK2
 70
     2
 10
1.0
 20
2.0
  0
ATTDEF
  8
0
 10
1.0
 20
2.0
 40
0.2
  1
3
  3
PROMPT
  2
ATTR2
 70
     0
 50
60.0
  0
ENDBLK
  8
0
  0
BLOCK
  8
0
  2
*D2
 70
     1
 10
0.0
 20
0.0
  0
LINE
  8
0
  6
BYBLOCK
 62
     0
 10
6.044194
 20
8.044194
 11
7.127279
 21
9.127279
  0
LINE
  8
0
  6
BYBLOCK
 62
     0
 10
7.044194
 20
7.044194
 11
8.127279
 21
8.127279
  0
LINE
  8
0
  6
BYBLOCK
 62
     0
 10
7.127279
 20
8.872721
 11
7.327721
 21
8.672279
  0
LINE
  8
0
  6
BYBLOCK
 62
     0
 10
7.872721
 20
8.127279
 11
7.672279
 21
8.327721
  0
SOLID
  8
0
  6
BYBLOCK
 62
     0
 10
7.106066
 20
8.851508
 11
7.148492
 21
8.893934
 12
7.0
 22
9.0
 13
7.0
 23
9.0
  0
SOLID
  8
0
  6
BYBLOCK
 62
     0
 10
7.851508
 20
8.106066
 11
7.893934
 21
8.148492
 12
8.0
 22
8.0
 13
8.0
 23
8.0
  0
POINT
  8
DEFPOINTS
  6
BYBLOCK
 62
     0
 10
6.0
 20
8.0
  0
POINT
  8
DEFPOINTS
  6
BYBLOCK
 62
     0
 10
7.0
 20
7.0
  0
POINT
  8
DEFPOINTS
  6
BYBLOCK
 62
     0
 10
8.0
 20
8.0
  0
ENDBLK
  8
0
  0
ENDSEC
  0
SECTION
  2
ENTITIES
  0
POINT
  8
0
 10
1.0
 20
2.0
  0
LINE
  8
0
 10
2.0
 20
3.0
 11
3.0
 21
4.0
  0
ARC
  8
0
 10
5.0
 20
5.0
 40
1.0
 50
270.0
 51
0.0
  0
CIRCLE
  8
0
 10
3.0
 20
1.0
 40
1.0
  0
TEXT
  8
0
 10
1.0
 20
4.0
 40
0.75
  1
FOO
 72
     3
 11
3.0
 21
4.0
  0
TRACE
  8
0
 10
0.929289
 20
5.070711
 11
1.070711
 21
4.929289
 12
1.929289
 22
6.070711
 13
2.070711
 23
5.929289
  0
INSERT
  8
0
  2
BLOCK1
 10
6.0
 20
1.0
 41
0.5
 42
0.5
 50
30.0
 43
0.5
  0
SHAPE
  8
0
 10
6.0
 20
6.0
 40
1.0
  2
DIODE
 50
30.0
  0
SOLID
  8
0
 10
7.0
 20
1.0
 11
8.0
 21
2.0
 12
7.0
 22
3.0
 13
8.0
 23
4.0
  0
ATTDEF
  8
0
 10
9.0
 20
5.0
 40
0.2
  1
3
  3
PROMPT
  2
ATTR1
 70
     0
 50
60.0
  0
INSERT
  8
0
 66
     1
  2
BLOCK2
 10
2.0
 20
2.0
 41
0.5
 42
0.5
 50
30.0
 43
0.5
  0
ATTRIB
  8
0
 10
2.0
 20
2.0
 40
0.1
  1
4
  2
ATTR2
 70
     0
 50
90.0
  0
SEQEND
  8
0
  0
POLYLINE
  8
0
 66
     1
  0
VERTEX
  8
0
 10
5.0
 20
7.0
  0
VERTEX
  8
0
 10
6.0
 20
8.0
  0
VERTEX
  8
0
 10
7.0
 20
7.0
  0
SEQEND
  8
0
  0
DIMENSION
  8
0
  2
*D2
 10
8.0
 20
8.0
 11
7.5
 21
8.5
 70
     1
  1
 
 13
6.0
 23
8.0
 14
7.0
 24
7.0
  0
3DLINE
  8
0
 10
5.0
 20
9.0
 11
6.0
 21
10.0
 31
1.0
  0
3DFACE
  8
0
 10
0.0
 20
7.0
 11
4.0
 21
8.0
 12
3.0
 22
9.0
 13
2.0
 23
8.0
  0
ENDSEC
  0
EOF
