  0
SECTION
  2
HEADER
  9
$ACADVER
  1
AC1009
  9
$INSBASE
 10
0.0
 20
0.0
 30
0.0
  9
$EXTMIN
 10
3.7603684026639992
 20
2.1982248837897469
 30
0.0
  9
$EXTMAX
 10
34.0129551643208927
 20
20.7589140730314199
 30
0.0
  9
$LIMMIN
 10
0.0
 20
0.0
  9
$LIMMAX
 10
12.0
 20
9.0
  9
$ORTHOMODE
 70
     0
  9
$REGENMODE
 70
     1
  9
$FILLMODE
 70
     1
  9
$QTEXTMODE
 70
     0
  9
$MIRRTEXT
 70
     0
  9
$DRAGMODE
 70
     2
  9
$LTSCALE
 40
1.0
  9
$OSMODE
 70
    37
  9
$ATTMODE
 70
     1
  9
$TEXTSIZE
 40
0.2
  9
$TRACEWID
 40
0.05
  9
$TEXTSTYLE
  7
STANDARD
  9
$CLAYER
  8
0
  9
$CELTYPE
  6
BYLAYER
  9
$CECOLOR
 62
   256
  9
$DIMSCALE
 40
1.0
  9
$DIMASZ
 40
0.18
  9
$DIMEXO
 40
0.0625
  9
$DIMDLI
 40
0.38
  9
$DIMRND
 40
0.0
  9
$DIMDLE
 40
0.0
  9
$DIMEXE
 40
0.18
  9
$DIMTP
 40
0.0
  9
$DIMTM
 40
0.0
  9
$DIMTXT
 40
0.18
  9
$DIMCEN
 40
0.09
  9
$DIMTSZ
 40
0.0
  9
$DIMTOL
 70
     0
  9
$DIMLIM
 70
     0
  9
$DIMTIH
 70
     1
  9
$DIMTOH
 70
     1
  9
$DIMSE1
 70
     0
  9
$DIMSE2
 70
     0
  9
$DIMTAD
 70
     0
  9
$DIMZIN
 70
     0
  9
$DIMBLK
  1

  9
$DIMASO
 70
     1
  9
$DIMSHO
 70
     1
  9
$DIMPOST
  1

  9
$DIMAPOST
  1

  9
$DIMALT
 70
     0
  9
$DIMALTD
 70
     2
  9
$DIMALTF
 40
25.3999999999999986
  9
$DIMLFAC
 40
1.0
  9
$DIMTOFL
 70
     0
  9
$DIMTVP
 40
0.0
  9
$DIMTIX
 70
     0
  9
$DIMSOXD
 70
     0
  9
$DIMSAH
 70
     0
  9
$DIMBLK1
  1

  9
$DIMBLK2
  1

  9
$DIMSTYLE
  2
STANDARD
  9
$DIMCLRD
 70
     0
  9
$DIMCLRE
 70
     0
  9
$DIMCLRT
 70
     0
  9
$DIMTFAC
 40
1.0
  9
$DIMGAP
 40
0.09
  9
$LUNITS
 70
     2
  9
$LUPREC
 70
     4
  9
$SKETCHINC
 40
0.1
  9
$FILLETRAD
 40
0.0
  9
$AUNITS
 70
     0
  9
$AUPREC
 70
     0
  9
$MENU
  1
.
  9
$ELEVATION
 40
0.0
  9
$PELEVATION
 40
0.0
  9
$THICKNESS
 40
0.0
  9
$LIMCHECK
 70
     0
  9
$BLIPMODE
 70
     0
  9
$CHAMFERA
 40
0.0
  9
$CHAMFERB
 40
0.0
  9
$SKPOLY
 70
     0
  9
$TDCREATE
 40
2458202.3968402771279216
  9
$TDUPDATE
 40
2458204.7505555548705161
  9
$TDINDWG
 40
2.3120486110999998
  9
$TDUSRTIMER
 40
2.3120486110999998
  9
$USRTIMER
 70
     1
  9
$ANGBASE
 50
0.0
  9
$ANGDIR
 70
     0
  9
$PDMODE
 70
     0
  9
$PDSIZE
 40
0.0
  9
$PLINEWID
 40
0.0
  9
$COORDS
 70
     1
  9
$SPLFRAME
 70
     0
  9
$SPLINETYPE
 70
     6
  9
$SPLINESEGS
 70
     8
  9
$ATTDIA
 70
     1
  9
$ATTREQ
 70
     1
  9
$HANDLING
 70
     1
  9
$HANDSEED
  5
D69
  9
$SURFTAB1
 70
     6
  9
$SURFTAB2
 70
     6
  9
$SURFTYPE
 70
     6
  9
$SURFU
 70
     6
  9
$SURFV
 70
     6
  9
$UCSNAME
  2

  9
$UCSORG
 10
0.0
 20
0.0
 30
0.0
  9
$UCSXDIR
 10
1.0
 20
0.0
 30
0.0
  9
$UCSYDIR
 10
0.0
 20
1.0
 30
0.0
  9
$PUCSNAME
  2

  9
$PUCSORG
 10
0.0
 20
0.0
 30
0.0
  9
$PUCSXDIR
 10
1.0
 20
0.0
 30
0.0
  9
$PUCSYDIR
 10
0.0
 20
1.0
 30
0.0
  9
$USERI1
 70
     0
  9
$USERI2
 70
     0
  9
$USERI3
 70
     0
  9
$USERI4
 70
     0
  9
$USERI5
 70
     0
  9
$USERR1
 40
0.0
  9
$USERR2
 40
0.0
  9
$USERR3
 40
0.0
  9
$USERR4
 40
0.0
  9
$USERR5
 40
0.0
  9
$WORLDVIEW
 70
     1
  9
$SHADEDGE
 70
     3
  9
$SHADEDIF
 70
    70
  9
$TILEMODE
 70
     1
  9
$MAXACTVP
 70
    64
  9
$PLIMCHECK
 70
     0
  9
$PEXTMIN
 10
0.0
 20
0.0
 30
0.0
  9
$PEXTMAX
 10
0.0
 20
0.0
 30
0.0
  9
$PLIMMIN
 10
0.0
 20
0.0
  9
$PLIMMAX
 10
12.0
 20
9.0
  9
$UNITMODE
 70
     0
  9
$VISRETAIN
 70
     1
  9
$PLINEGEN
 70
     0
  9
$PSLTSCALE
 70
     1
  0
ENDSEC
  0
SECTION
  2
TABLES
  0
TABLE
  2
VPORT
 70
     1
  0
VPORT
  2
*ACTIVE
 70
     0
 10
0.0
 20
0.0
 11
1.0
 21
1.0
 12
21.3201880178610885
 22
12.0607142145651896
 13
0.0
 23
0.0
 14
0.5
 24
0.5
 15
0.5
 25
0.5
 16
0.0
 26
0.0
 36
1.0
 17
0.0
 27
0.0
 37
0.0
 40
27.3734395812708087
 41
1.320785597381342
 42
50.0
 43
0.0
 44
0.0
 50
0.0
 51
0.0
 71
     0
 72
  1000
 73
     1
 74
     3
 75
     0
 76
     1
 77
     0
 78
     0
  0
ENDTAB
  0
TABLE
  2
LTYPE
 70
     4
  0
LTYPE
  2
CONTINUOUS
 70
     0
  3
Solid line
 72
    65
 73
     0
 40
0.0
  0
LTYPE
  2
ACAD_ISO02W100
 70
     0
  3
ISO dash __ __ __ __ __ __ __ __ __ __ __ __ __
 72
    65
 73
     2
 40
15.0
 49
12.0
 49
-3.0
  0
ENDTAB
  0
TABLE
  2
LAYER
 70
     1
  0
LAYER
  2
0
 70
     0
 62
     7
  6
CONTINUOUS
  0
ENDTAB
  0
TABLE
  2
STYLE
 70
     3
  0
STYLE
  2
STANDARD
 70
     0
 40
0.0
 41
1.0
 50
0.0
 71
     0
 42
0.2
  3
txt
  4

  0
STYLE
  2
ANNOTATIVE
 70
     0
 40
0.0
 41
1.0
 50
0.0
 71
     0
 42
0.2
  3
txt
  4

  0
STYLE
  2

 70
     1
 40
0.0
 41
1.0
 50
0.0
 71
     0
 42
0.2
  3
ltypeshp.shx
  4

  0
ENDTAB
  0
TABLE
  2
VIEW
 70
    23
  0
ENDTAB
  0
TABLE
  2
UCS
 70
     0
  0
ENDTAB
  0
TABLE
  2
APPID
 70
     8
  0
APPID
  2
ACAD
 70
     0
  0
APPID
  2
ACADANNOPO
 70
     0
  0
APPID
  2
ACADANNOTATIVE
 70
     0
  0
APPID
  2
ACAD_DSTYLE_DIMJAG
 70
     0
  0
APPID
  2
ACAD_DSTYLE_DIMTALN
 70
     0
  0
APPID
  2
ACAD_MLEADERVER
 70
     0
  0
APPID
  2
ACAD_NAV_VCDISPLAY
 70
     0
  0
APPID
  2
ACAD_EXEMPT_FROM_CAD_STANDARDS
 70
     0
  0
ENDTAB
  0
TABLE
  2
DIMSTYLE
 70
     3
  0
DIMSTYLE
  2
STANDARD
 70
     0
  3

  4

  5

  6

  7

 40
1.0
 41
0.18
 42
0.0625
 43
0.38
 44
0.18
 45
0.0
 46
0.0
 47
0.0
 48
0.0
140
0.18
141
0.09
142
0.0
143
25.3999999999999986
144
1.0
145
0.0
146
1.0
147
0.09
 71
     0
 72
     0
 73
     1
 74
     1
 75
     0
 76
     0
 77
     0
 78
     0
170
     0
171
     2
172
     0
173
     0
174
     0
175
     0
176
     0
177
     0
178
     0
  0
DIMSTYLE
  2
ANNOTATIVE
 70
     0
  3

  4

  5

  6

  7

 40
0.0
 41
0.18
 42
0.0625
 43
0.38
 44
0.18
 45
0.0
 46
0.0
 47
0.0
 48
0.0
140
0.18
141
0.09
142
0.0
143
25.3999999999999986
144
1.0
145
0.0
146
1.0
147
0.09
 71
     0
 72
     0
 73
     1
 74
     1
 75
     0
 76
     0
 77
     0
 78
     0
170
     0
171
     2
172
     0
173
     0
174
     0
175
     0
176
     0
177
     0
178
     0
  0
ENDTAB
  0
ENDSEC
  0
SECTION
  2
BLOCKS
  0
BLOCK
  8
0
  2
$MODEL_SPACE
 70
     0
 10
0.0
 20
0.0
 30
0.0
  3
$MODEL_SPACE
  1

  0
ENDBLK
  5
21
  8
0
  0
BLOCK
 67
     1
  8
0
  2
$PAPER_SPACE
 70
     0
 10
0.0
 20
0.0
 30
0.0
  3
$PAPER_SPACE
  1

  0
ENDBLK
  5
5B
 67
     1
  8
0
  0
BLOCK
  8
0
  2
_OPEN30
 70
     0
 10
0.0
 20
0.0
 30
0.0
  3
_OPEN30
  1

  0
LINE
  5
77B
  8
0
  6
BYBLOCK
 62
     0
 10
-1.0
 20
0.26794919
 30
0.0
 11
0.0
 21
0.0
 31
0.0
  0
LINE
  5
77C
  8
0
  6
BYBLOCK
 62
     0
 10
0.0
 20
0.0
 30
0.0
 11
-1.0
 21
-0.26794919
 31
0.0
  0
LINE
  5
77D
  8
0
  6
BYBLOCK
 62
     0
 10
0.0
 20
0.0
 30
0.0
 11
-1.0
 21
0.0
 31
0.0
  0
ENDBLK
  5
77F
  8
0
  0
BLOCK
  8
0
  2
*U3
 70
     1
 10
0.0
 20
0.0
 30
0.0
  3
*U3
  1

  0
POLYLINE
  8
0
  5
CC7
  66
     1
 10
0.00000
 20
0.00000
 30
0.00000
  70
     8
  0
VERTEX
  8
0
  5
CC8
 10
9.57447
 20
10.0703
 30
0.00000
  70
    32
  0
VERTEX
  8
0
  5
CC9
 10
9.60596
 20
10.1001
 30
0.00000
  70
    32
  0
VERTEX
  8
0
  5
CCA
 10
9.63731
 20
10.1302
 30
0.00000
  70
    32
  0
VERTEX
  8
0
  5
CCB
 10
9.66852
 20
10.1607
 30
0.00000
  70
    32
  0
VERTEX
  8
0
  5
CCC
 10
9.69960
 20
10.1915
 30
0.00000
  70
    32
  0
VERTEX
  8
0
  5
CCD
 10
9.73055
 20
10.2226
 30
0.00000
  70
    32
  0
VERTEX
  8
0
  5
CCE
 10
9.76138
 20
10.2541
 30
0.00000
  70
    32
  0
VERTEX
  8
0
  5
CCF
 10
9.79209
 20
10.2858
 30
0.00000
  70
    32
  0
VERTEX
  8
0
  5
CD0
 10
9.82268
 20
10.3178
 30
0.00000
  70
    32
  0
VERTEX
  8
0
  5
CD1
 10
9.85317
 20
10.3501
 30
0.00000
  70
    32
  0
VERTEX
  8
0
  5
CD2
 10
9.88356
 20
10.3827
 30
0.00000
  70
    32
  0
VERTEX
  8
0
  5
CD3
 10
9.91385
 20
10.4155
 30
0.00000
  70
    32
  0
VERTEX
  8
0
  5
CD4
 10
9.94404
 20
10.4485
 30
0.00000
  70
    32
  0
VERTEX
  8
0
  5
CD5
 10
9.97415
 20
10.4818
 30
0.00000
  70
    32
  0
VERTEX
  8
0
  5
CD6
 10
10.0042
 20
10.5153
 30
0.00000
  70
    32
  0
VERTEX
  8
0
  5
CD7
 10
10.0341
 20
10.5489
 30
0.00000
  70
    32
  0
VERTEX
  8
0
  5
CD8
 10
10.0640
 20
10.5828
 30
0.00000
  70
    32
  0
VERTEX
  8
0
  5
CD9
 10
10.0938
 20
10.6169
 30
0.00000
  70
    32
  0
VERTEX
  8
0
  5
CDA
 10
10.1235
 20
10.6511
 30
0.00000
  70
    32
  0
VERTEX
  8
0
  5
CDB
 10
10.1532
 20
10.6854
 30
0.00000
  70
    32
  0
VERTEX
  8
0
  5
CDC
 10
10.1828
 20
10.7199
 30
0.00000
  70
    32
  0
VERTEX
  8
0
  5
CDD
 10
10.2124
 20
10.7545
 30
0.00000
  70
    32
  0
VERTEX
  8
0
  5
CDE
 10
10.2419
 20
10.7893
 30
0.00000
  70
    32
  0
VERTEX
  8
0
  5
CDF
 10
10.2714
 20
10.8241
 30
0.00000
  70
    32
  0
VERTEX
  8
0
  5
CE0
 10
10.3008
 20
10.8590
 30
0.00000
  70
    32
  0
VERTEX
  8
0
  5
CE1
 10
10.3303
 20
10.8940
 30
0.00000
  70
    32
  0
VERTEX
  8
0
  5
CE2
 10
10.3596
 20
10.9291
 30
0.00000
  70
    32
  0
VERTEX
  8
0
  5
CE3
 10
10.3890
 20
10.9642
 30
0.00000
  70
    32
  0
VERTEX
  8
0
  5
CE4
 10
10.4184
 20
10.9994
 30
0.00000
  70
    32
  0
VERTEX
  8
0
  5
CE5
 10
10.4477
 20
11.0346
 30
0.00000
  70
    32
  0
VERTEX
  8
0
  5
CE6
 10
10.4771
 20
11.0698
 30
0.00000
  70
    32
  0
VERTEX
  8
0
  5
CE7
 10
10.5064
 20
11.1050
 30
0.00000
  70
    32
  0
VERTEX
  8
0
  5
CE8
 10
10.5358
 20
11.1402
 30
0.00000
  70
    32
  0
VERTEX
  8
0
  5
CE9
 10
10.5651
 20
11.1753
 30
0.00000
  70
    32
  0
VERTEX
  8
0
  5
CEA
 10
10.5945
 20
11.2105
 30
0.00000
  70
    32
  0
VERTEX
  8
0
  5
CEB
 10
10.6239
 20
11.2456
 30
0.00000
  70
    32
  0
VERTEX
  8
0
  5
CEC
 10
10.6533
 20
11.2806
 30
0.00000
  70
    32
  0
VERTEX
  8
0
  5
CED
 10
10.6827
 20
11.3156
 30
0.00000
  70
    32
  0
VERTEX
  8
0
  5
CEE
 10
10.7122
 20
11.3504
 30
0.00000
  70
    32
  0
VERTEX
  8
0
  5
CEF
 10
10.7417
 20
11.3852
 30
0.00000
  70
    32
  0
VERTEX
  8
0
  5
CF0
 10
10.7712
 20
11.4199
 30
0.00000
  70
    32
  0
VERTEX
  8
0
  5
CF1
 10
10.8008
 20
11.4545
 30
0.00000
  70
    32
  0
VERTEX
  8
0
  5
CF2
 10
10.8305
 20
11.4889
 30
0.00000
  70
    32
  0
VERTEX
  8
0
  5
CF3
 10
10.8602
 20
11.5232
 30
0.00000
  70
    32
  0
VERTEX
  8
0
  5
CF4
 10
10.8899
 20
11.5573
 30
0.00000
  70
    32
  0
VERTEX
  8
0
  5
CF5
 10
10.9198
 20
11.5913
 30
0.00000
  70
    32
  0
VERTEX
  8
0
  5
CF6
 10
10.9497
 20
11.6250
 30
0.00000
  70
    32
  0
VERTEX
  8
0
  5
CF7
 10
10.9797
 20
11.6586
 30
0.00000
  70
    32
  0
VERTEX
  8
0
  5
CF8
 10
11.0097
 20
11.6920
 30
0.00000
  70
    32
  0
VERTEX
  8
0
  5
CF9
 10
11.0399
 20
11.7251
 30
0.00000
  70
    32
  0
VERTEX
  8
0
  5
CFA
 10
11.0701
 20
11.7581
 30
0.00000
  70
    32
  0
VERTEX
  8
0
  5
CFB
 10
11.1004
 20
11.7907
 30
0.00000
  70
    32
  0
VERTEX
  8
0
  5
CFC
 10
11.1309
 20
11.8232
 30
0.00000
  70
    32
  0
VERTEX
  8
0
  5
CFD
 10
11.1614
 20
11.8553
 30
0.00000
  70
    32
  0
VERTEX
  8
0
  5
CFE
 10
11.1921
 20
11.8872
 30
0.00000
  70
    32
  0
VERTEX
  8
0
  5
CFF
 10
11.2229
 20
11.9188
 30
0.00000
  70
    32
  0
VERTEX
  8
0
  5
D00
 10
11.2537
 20
11.9501
 30
0.00000
  70
    32
  0
VERTEX
  8
0
  5
D01
 10
11.2848
 20
11.9810
 30
0.00000
  70
    32
  0
VERTEX
  8
0
  5
D02
 10
11.3159
 20
12.0117
 30
0.00000
  70
    32
  0
VERTEX
  8
0
  5
D03
 10
11.3472
 20
12.0420
 30
0.00000
  70
    32
  0
VERTEX
  8
0
  5
D04
 10
11.3786
 20
12.0719
 30
0.00000
  70
    32
  0
VERTEX
  8
0
  5
D05
 10
11.4102
 20
12.1015
 30
0.00000
  70
    32
  0
VERTEX
  8
0
  5
D06
 10
11.4419
 20
12.1307
 30
0.00000
  70
    32
  0
VERTEX
  8
0
  5
D07
 10
11.4738
 20
12.1595
 30
0.00000
  70
    32
  0
VERTEX
  8
0
  5
D08
 10
11.5058
 20
12.1879
 30
0.00000
  70
    32
  0
VERTEX
  8
0
  5
D09
 10
11.5380
 20
12.2159
 30
0.00000
  70
    32
  0
VERTEX
  8
0
  5
D0A
 10
11.5703
 20
12.2434
 30
0.00000
  70
    32
  0
VERTEX
  8
0
  5
D0B
 10
11.6029
 20
12.2705
 30
0.00000
  70
    32
  0
VERTEX
  8
0
  5
D0C
 10
11.6356
 20
12.2972
 30
0.00000
  70
    32
  0
VERTEX
  8
0
  5
D0D
 10
11.6685
 20
12.3234
 30
0.00000
  70
    32
  0
VERTEX
  8
0
  5
D0E
 10
11.7016
 20
12.3491
 30
0.00000
  70
    32
  0
VERTEX
  8
0
  5
D0F
 10
11.7349
 20
12.3744
 30
0.00000
  70
    32
  0
VERTEX
  8
0
  5
D10
 10
11.7683
 20
12.3991
 30
0.00000
  70
    32
  0
VERTEX
  8
0
  5
D11
 10
11.8020
 20
12.4233
 30
0.00000
  70
    32
  0
VERTEX
  8
0
  5
D12
 10
11.8359
 20
12.4470
 30
0.00000
  70
    32
  0
VERTEX
  8
0
  5
D13
 10
11.8700
 20
12.4702
 30
0.00000
  70
    32
  0
VERTEX
  8
0
  5
D14
 10
11.9043
 20
12.4928
 30
0.00000
  70
    32
  0
VERTEX
  8
0
  5
D15
 10
11.9389
 20
12.5148
 30
0.00000
  70
    32
  0
VERTEX
  8
0
  5
D16
 10
11.9736
 20
12.5363
 30
0.00000
  70
    32
  0
VERTEX
  8
0
  5
D17
 10
12.0086
 20
12.5572
 30
0.00000
  70
    32
  0
VERTEX
  8
0
  5
D18
 10
12.0439
 20
12.5774
 30
0.00000
  70
    32
  0
VERTEX
  8
0
  5
D19
 10
12.0794
 20
12.5971
 30
0.00000
  70
    32
  0
VERTEX
  8
0
  5
D1A
 10
12.1151
 20
12.6161
 30
0.00000
  70
    32
  0
VERTEX
  8
0
  5
D1B
 10
12.1511
 20
12.6346
 30
0.00000
  70
    32
  0
VERTEX
  8
0
  5
D1C
 10
12.1873
 20
12.6523
 30
0.00000
  70
    32
  0
VERTEX
  8
0
  5
D1D
 10
12.2238
 20
12.6694
 30
0.00000
  70
    32
  0
VERTEX
  8
0
  5
D1E
 10
12.2606
 20
12.6858
 30
0.00000
  70
    32
  0
VERTEX
  8
0
  5
D1F
 10
12.2976
 20
12.7016
 30
0.00000
  70
    32
  0
VERTEX
  8
0
  5
D20
 10
12.3349
 20
12.7166
 30
0.00000
  70
    32
  0
VERTEX
  8
0
  5
D21
 10
12.3725
 20
12.7309
 30
0.00000
  70
    32
  0
VERTEX
  8
0
  5
D22
 10
12.4104
 20
12.7445
 30
0.00000
  70
    32
  0
VERTEX
  8
0
  5
D23
 10
12.4486
 20
12.7574
 30
0.00000
  70
    32
  0
VERTEX
  8
0
  5
D24
 10
12.4870
 20
12.7695
 30
0.00000
  70
    32
  0
VERTEX
  8
0
  5
D25
 10
12.5258
 20
12.7810
 30
0.00000
  70
    32
  0
VERTEX
  8
0
  5
D26
 10
12.5648
 20
12.7917
 30
0.00000
  70
    32
  0
VERTEX
  8
0
  5
D27
 10
12.6041
 20
12.8017
 30
0.00000
  70
    32
  0
VERTEX
  8
0
  5
D28
 10
12.6437
 20
12.8110
 30
0.00000
  70
    32
  0
VERTEX
  8
0
  5
D29
 10
12.6835
 20
12.8197
 30
0.00000
  70
    32
  0
VERTEX
  8
0
  5
D2A
 10
12.7236
 20
12.8277
 30
0.00000
  70
    32
  0
VERTEX
  8
0
  5
D2B
 10
12.7639
 20
12.8351
 30
0.00000
  70
    32
  0
VERTEX
  8
0
  5
D2C
 10
12.8045
 20
12.8419
 30
0.00000
  70
    32
  0
VERTEX
  8
0
  5
D2D
 10
12.8453
 20
12.8481
 30
0.00000
  70
    32
  0
VERTEX
  8
0
  5
D2E
 10
12.8863
 20
12.8538
 30
0.00000
  70
    32
  0
VERTEX
  8
0
  5
D2F
 10
12.9275
 20
12.8589
 30
0.00000
  70
    32
  0
VERTEX
  8
0
  5
D30
 10
12.9690
 20
12.8634
 30
0.00000
  70
    32
  0
VERTEX
  8
0
  5
D31
 10
13.0107
 20
12.8674
 30
0.00000
  70
    32
  0
VERTEX
  8
0
  5
D32
 10
13.0526
 20
12.8709
 30
0.00000
  70
    32
  0
VERTEX
  8
0
  5
D33
 10
13.0946
 20
12.8739
 30
0.00000
  70
    32
  0
VERTEX
  8
0
  5
D34
 10
13.1369
 20
12.8764
 30
0.00000
  70
    32
  0
VERTEX
  8
0
  5
D35
 10
13.1793
 20
12.8785
 30
0.00000
  70
    32
  0
VERTEX
  8
0
  5
D36
 10
13.2220
 20
12.8801
 30
0.00000
  70
    32
  0
VERTEX
  8
0
  5
D37
 10
13.2647
 20
12.8813
 30
0.00000
  70
    32
  0
VERTEX
  8
0
  5
D38
 10
13.3077
 20
12.8820
 30
0.00000
  70
    32
  0
VERTEX
  8
0
  5
D39
 10
13.3508
 20
12.8824
 30
0.00000
  70
    32
  0
VERTEX
  8
0
  5
D3A
 10
13.3941
 20
12.8824
 30
0.00000
  70
    32
  0
VERTEX
  8
0
  5
D3B
 10
13.4375
 20
12.8820
 30
0.00000
  70
    32
  0
VERTEX
  8
0
  5
D3C
 10
13.4810
 20
12.8813
 30
0.00000
  70
    32
  0
VERTEX
  8
0
  5
D3D
 10
13.5247
 20
12.8803
 30
0.00000
  70
    32
  0
VERTEX
  8
0
  5
D3E
 10
13.5685
 20
12.8789
 30
0.00000
  70
    32
  0
VERTEX
  8
0
  5
D3F
 10
13.6124
 20
12.8773
 30
0.00000
  70
    32
  0
VERTEX
  8
0
  5
D40
 10
13.6564
 20
12.8753
 30
0.00000
  70
    32
  0
VERTEX
  8
0
  5
D41
 10
13.7005
 20
12.8731
 30
0.00000
  70
    32
  0
VERTEX
  8
0
  5
D42
 10
13.7448
 20
12.8706
 30
0.00000
  70
    32
  0
VERTEX
  8
0
  5
D43
 10
13.7891
 20
12.8680
 30
0.00000
  70
    32
  0
VERTEX
  8
0
  5
D44
 10
13.8335
 20
12.8651
 30
0.00000
  70
    32
  0
VERTEX
  8
0
  5
D45
 10
13.8780
 20
12.8619
 30
0.00000
  70
    32
  0
VERTEX
  8
0
  5
D46
 10
13.9225
 20
12.8587
 30
0.00000
  70
    32
  0
VERTEX
  8
0
  5
D47
 10
13.9672
 20
12.8552
 30
0.00000
  70
    32
  0
VERTEX
  8
0
  5
D48
 10
14.0118
 20
12.8516
 30
0.00000
  70
    32
  0
VERTEX
  8
0
  5
D49
 10
14.0566
 20
12.8479
 30
0.00000
  70
    32
  0
VERTEX
  8
0
  5
D4A
 10
14.1014
 20
12.8440
 30
0.00000
  70
    32
  0
VERTEX
  8
0
  5
D4B
 10
14.1462
 20
12.8400
 30
0.00000
  70
    32
  0
VERTEX
  8
0
  5
D4C
 10
14.1910
 20
12.8360
 30
0.00000
  70
    32
  0
VERTEX
  8
0
  5
D4D
 10
14.2359
 20
12.8319
 30
0.00000
  70
    32
  0
VERTEX
  8
0
  5
D4E
 10
14.2808
 20
12.8277
 30
0.00000
  70
    32
  0
VERTEX
  8
0
  5
D4F
 10
14.3258
 20
12.8235
 30
0.00000
  70
    32
  0
VERTEX
  8
0
  5
D50
 10
14.3707
 20
12.8193
 30
0.00000
  70
    32
  0
VERTEX
  8
0
  5
D51
 10
14.4156
 20
12.8150
 30
0.00000
  70
    32
  0
VERTEX
  8
0
  5
D52
 10
14.4605
 20
12.8108
 30
0.00000
  70
    32
  0
VERTEX
  8
0
  5
D53
 10
14.5055
 20
12.8066
 30
0.00000
  70
    32
  0
VERTEX
  8
0
  5
D54
 10
14.5504
 20
12.8025
 30
0.00000
  70
    32
  0
VERTEX
  8
0
  5
D55
 10
14.5952
 20
12.7984
 30
0.00000
  70
    32
  0
VERTEX
  8
0
  5
D56
 10
14.6401
 20
12.7944
 30
0.00000
  70
    32
  0
VERTEX
  8
0
  5
D57
 10
14.6849
 20
12.7905
 30
0.00000
  70
    32
  0
VERTEX
  8
0
  5
D58
 10
14.7296
 20
12.7867
 30
0.00000
  70
    32
  0
VERTEX
  8
0
  5
D59
 10
14.7743
 20
12.7830
 30
0.00000
  70
    32
  0
VERTEX
  8
0
  5
D5A
 10
14.8190
 20
12.7794
 30
0.00000
  70
    32
  0
VERTEX
  8
0
  5
D5B
 10
14.8636
 20
12.7761
 30
0.00000
  70
    32
  0
VERTEX
  8
0
  5
D5C
 10
14.9081
 20
12.7729
 30
0.00000
  70
    32
  0
VERTEX
  8
0
  5
D5D
 10
14.9525
 20
12.7699
 30
0.00000
  70
    32
  0
VERTEX
  8
0
  5
D5E
 10
14.9969
 20
12.7671
 30
0.00000
  70
    32
  0
VERTEX
  8
0
  5
D5F
 10
15.0412
 20
12.7645
 30
0.00000
  70
    32
  0
VERTEX
  8
0
  5
D60
 10
15.0854
 20
12.7622
 30
0.00000
  70
    32
  0
VERTEX
  8
0
  5
D61
 10
15.1294
 20
12.7601
 30
0.00000
  70
    32
  0
VERTEX
  8
0
  5
D62
 10
15.1734
 20
12.7583
 30
0.00000
  70
    32
  0
VERTEX
  8
0
  5
D63
 10
15.2173
 20
12.7568
 30
0.00000
  70
    32
  0
VERTEX
  8
0
  5
D64
 10
15.2610
 20
12.7556
 30
0.00000
  70
    32
  0
VERTEX
  8
0
  5
D65
 10
15.3046
 20
12.7547
 30
0.00000
  70
    32
  0
VERTEX
  8
0
  5
D66
 10
15.3481
 20
12.7542
 30
0.00000
  70
    32
  0
VERTEX
  8
0
  5
D67
 10
15.3914
 20
12.7540
 30
0.00000
  70
    32
  0
SEQEND
  8
0
  5
D68
  0
ENDBLK
  5
CB0
  8
0
  0
BLOCK
  8
0
  2
*U4
 70
     1
 10
0.0
 20
0.0
 30
0.0
  3
*U4
  1

  0
TEXT
  5
CB2
  8
0
 10
15.4642064205007799
 20
12.6639957636324301
 30
0.0
 40
0.18
  1
MTEXT
  0
ENDBLK
  5
CB4
  8
0
  0
BLOCK
  8
0
  2
*U5
 70
     1
 10
0.0
 20
0.0
 30
0.0
  3
*U5
  1

  0
TEXT
  5
CB6
  8
0
 10
16.7609144651517283
 20
14.4531094955887394
 30
0.0
 40
0.18
  1
LEADER
  0
LINE
  5
CB7
  8
0
  6
BYBLOCK
 10
18.2103687625596393
 20
14.5431094955887303
 30
0.0
 11
17.8503687625596399
 21
14.5431094955887303
 31
0.0
  0
POLYLINE
  5
CB8
  8
0
  6
BYBLOCK
 66
     1
 10
0.0
 20
0.0
 30
0.0
  0
VERTEX
  5
CB9
  8
0
  6
BYBLOCK
 10
20.1896101318312695
 20
13.8011885201027606
 30
0.0
  0
VERTEX
  5
CBA
  8
0
  6
BYBLOCK
 10
18.2103687625596393
 20
14.5431094955887303
 30
0.0
  0
SEQEND
  5
CBB
  8
0
  6
BYBLOCK
  0
SOLID
  5
CBC
  8
0
 10
20.2001401700166703
 20
13.8292797695554608
 30
0.0
 11
20.3581576285474704
 21
13.7380082909903205
 31
0.0
 12
20.1790800936458616
 22
13.7730972706500605
 32
0.0
 13
20.1790800936458616
 23
13.7730972706500605
 33
0.0
  0
ENDBLK
  5
CBE
  8
0
  0
ENDSEC
  0
SECTION
  2
ENTITIES
  0
INSERT
  5
72E
  8
0
  2
*U3
 10
0.0
 20
0.0
 30
0.0
1001
ACAD
1000
DSTYLE
1002
{
1070
    40
1040
0.0
1070
    41
1040
0.24
1070
   341
1005
77A
1070
   147
1040
0.09
1070
    77
1070
     0
1002
}
1001
ACADANNOTATIVE
1000
AnnotativeData
1002
{
1070
     1
1070
     1
1002
}
  0
INSERT
  5
731
  8
0
  2
*U4
 10
0.0
 20
0.0
 30
0.0
  0
INSERT
  5
732
  8
0
  2
*U5
 10
0.0
 20
0.0
 30
0.0
1001
ACAD_MLEADERVER
1070
     2
  0
LINE
  5
7C8
  8
0
 10
9.5744679734992246
 20
10.0703252287432008
 30
0.0
 11
14.6307208266055202
 21
10.0703252287432008
 31
0.0
  0
POLYLINE
  5
817
  8
0
 66
     1
 10
0.0
 20
0.0
 30
0.0
 70
     1
  0
VERTEX
  5
CBF
  8
0
 10
18.2551144009148203
 20
3.182237474192831
 30
0.0
  0
VERTEX
  5
CC0
  8
0
 10
29.173040866613281
 20
2.1982248837897478
 30
0.0
  0
VERTEX
  5
CC1
  8
0
 10
32.2157416643819516
 20
4.4793449109475807
 30
0.0
  0
VERTEX
  5
CC2
  8
0
 10
33.0659080622229808
 20
9.3994075477369847
 30
0.0
  0
VERTEX
  5
CC3
  8
0
 10
27.4279624325760487
 20
11.0096098938886104
 30
0.0
  0
VERTEX
  5
CC4
  8
0
 10
21.1188328540934798
 20
7.4761103552336934
 30
0.0
  0
VERTEX
  5
CC5
  8
0
 10
18.8815528158106289
 20
4.9266233439366607
 30
0.0
  0
SEQEND
  5
CC6
  8
0
  0
ENDSEC
  0
EOF
