999
dxfrw 0.6.3
  0
SECTION
  2
HEADER
  9
$ACADVER
  1
AC1021
  9
$DWGCODEPAGE
  3
ANSI_1252
  9
$INSBASE
 10
0
 20
0
 30
0
  9
$EXTMIN
 10
1e+20
 20
1e+20
 30
1e+20
  9
$EXTMAX
 10
-1e+20
 20
-1e+20
 30
-1e+20
  9
$LIMMIN
 10
0
 20
0
  9
$LIMMAX
 10
420
 20
297
  9
$ORTHOMODE
 70
    0
  9
$REGENMODE
 70
    1
  9
$FILLMODE
 70
    1
  9
$QTEXTMODE
 70
    0
  9
$MIRRTEXT
 70
    0
  9
$LTSCALE
 40
1
  9
$ATTMODE
 70
    0
  9
$TEXTSIZE
 40
2.5
  9
$TRACEWID
 40
15.68
  9
$TEXTSTYLE
  7
STANDARD
  9
$CLAYER
  8
0
  9
$CELTYPE
  6
BYLAYER
  9
$CECOLOR
 62
  256
  9
$DIMSCALE
 40
2.5
  9
$DIMASZ
 40
2.5
  9
$DIMEXO
 40
0.625
  9
$DIMDLI
 40
3.75
  9
$DIMRND
 40
0
  9
$DIMDLE
 40
0
  9
$DIMEXE
 40
1.25
  9
$DIMTP
 40
0
  9
$DIMTM
 40
0
  9
$DIMTXT
 40
2.5
  9
$DIMCEN
 40
2.5
  9
$DIMTSZ
 40
0
  9
$DIMTOL
 70
    0
  9
$DIMLIM
 70
    0
  9
$DIMTIH
 70
    0
  9
$DIMTOH
 70
    0
  9
$DIMSE1
 70
    0
  9
$DIMSE2
 70
    0
  9
$DIMTAD
 70
    1
  9
$DIMZIN
 70
    8
  9
$DIMBLK
  1

  9
$DIMASO
 70
    1
  9
$DIMSHO
 70
    1
  9
$DIMPOST
  1

  9
$DIMAPOST
  1

  9
$DIMALT
 70
    0
  9
$DIMALTD
 70
    3
  9
$DIMALTF
 40
0.03937
  9
$DIMLFAC
 40
1
  9
$DIMTOFL
 70
    1
  9
$DIMTVP
 40
0
  9
$DIMTIX
 70
    0
  9
$DIMSOXD
 70
    0
  9
$DIMSAH
 70
    0
  9
$DIMBLK1
  1

  9
$DIMBLK2
  1

  9
$DIMSTYLE
  2
STANDARD
  9
$DIMCLRD
 70
    0
  9
$DIMCLRE
 70
    0
  9
$DIMCLRT
 70
    0
  9
$DIMTFAC
 40
1
  9
$DIMGAP
 40
0.625
  9
$LUNITS
 70
    2
  9
$LUPREC
 70
    4
  9
$SKETCHINC
 40
1
  9
$FILLETRAD
 40
0
  9
$AUNITS
 70
    0
  9
$AUPREC
 70
    2
  9
$MENU
  1
.
  9
$ELEVATION
 40
0
  9
$PELEVATION
 40
0
  9
$THICKNESS
 40
0
  9
$LIMCHECK
 70
    0
  9
$BLIPMODE
 70
    0
  9
$CHAMFERA
 40
0
  9
$CHAMFERB
 40
0
  9
$SKPOLY
 70
    0
  9
$USRTIMER
 70
    1
  9
$ANGBASE
 50
0
  9
$ANGDIR
 70
    0
  9
$PDMODE
 70
   34
  9
$PDSIZE
 40
0
  9
$PLINEWID
 40
0
  9
$COORDS
 70
    2
  9
$SPLFRAME
 70
    0
  9
$SPLINETYPE
 70
    2
  9
$SPLINESEGS
 70
    8
  9
$ATTDIA
 70
    1
  9
$ATTREQ
 70
    1
  9
$HANDLING
 70
    1
  9
$HANDSEED
  5
20000
  9
$SURFTAB1
 70
    6
  9
$SURFTAB2
 70
    6
  9
$SURFTYPE
 70
    6
  9
$SURFU
 70
    6
  9
$SURFV
 70
    6
  9
$UCSNAME
  2

  9
$UCSORG
 10
0
 20
0
 30
0
  9
$UCSXDIR
 10
1
 20
0
 30
0
  9
$UCSYDIR
 10
0
 20
1
 30
0
  9
$PUCSNAME
  2

  9
$PUCSORG
 10
0
 20
0
 30
0
  9
$PUCSXDIR
 10
1
 20
0
 30
0
  9
$PUCSYDIR
 10
0
 20
1
 30
0
  9
$USERI1
 70
    0
  9
$USERI2
 70
    0
  9
$USERI3
 70
    0
  9
$USERI4
 70
    0
  9
$USERI5
 70
    0
  9
$USERR1
 40
0
  9
$USERR2
 40
0
  9
$USERR3
 40
0
  9
$USERR4
 40
0
  9
$USERR5
 40
0
  9
$WORLDVIEW
 70
    1
  9
$SHADEDGE
 70
    3
  9
$SHADEDIF
 70
   70
  9
$TILEMODE
 70
    1
  9
$MAXACTVP
 70
   64
  9
$PLIMCHECK
 70
    0
  9
$PEXTMIN
 10
0
 20
0
 30
0
  9
$PEXTMAX
 10
0
 20
0
 30
0
  9
$PLIMMIN
 10
0
 20
0
  9
$PLIMMAX
 10
297
 20
210
  9
$UNITMODE
 70
    0
  9
$VISRETAIN
 70
    1
  9
$PLINEGEN
 70
    0
  9
$PSLTSCALE
 70
    1
  0
ENDSEC
  0
SECTION
  2
TABLES
  0
TABLE
  2
VPORT
 70
    1
  0
VPORT
  2
*ACTIVE
 70
   64
 10
0
 20
0
 11
1
 21
1
 12
4142.984728789781
 22
3684.608008760901
 13
0
 23
0
 14
10
 24
10
 15
10
 25
10
 16
0
 26
0
 36
1
 17
0
 27
0
 37
0
 40
16091.76032612947
 41
30172.05061149276
 42
50
 43
0
 44
0
 50
0
 51
0
 71
   16
 72
 1000
 73
    1
 74
    3
 75
    0
 76
    0
 77
    0
 78
    0
  0
ENDTAB
  0
TABLE
  2
LTYPE
 70
    4
  0
LTYPE
  2
BYBLOCK
 70
    0
  3

 72
   65
 73
    0
 40
0
  0
LTYPE
  2
BYLAYER
 70
    0
  3

 72
   65
 73
    0
 40
0
  0
LTYPE
  2
CONTINUOUS
 70
    0
  3
Solid line
 72
   65
 73
    0
 40
0
  0
ENDTAB
  0
TABLE
  2
LAYER
 70
    1
  0
LAYER
  2
0
 70
   64
 62
    7
  6
CONTINUOUS
  0
LAYER
  2
TAVOLO 2
 70
   64
 62
    2
  6
CONTINUOUS
  0
LAYER
  2
TAVOLO 3
 70
   64
 62
    4
  6
CONTINUOUS
  0
ENDTAB
  0
TABLE
  2
STYLE
 70
    3
  0
STYLE
  2
STANDARD
 70
   64
 40
0
 41
1
 50
0
 71
    0
 42
100
  3
TXT
  4

  0
ENDTAB
  0
TABLE
  2
VIEW
 70
    0
  0
ENDTAB
  0
TABLE
  2
UCS
 70
    0
  0
ENDTAB
  0
TABLE
  2
APPID
 70
    1
  0
APPID
  2
ACAD
 70
    0
  0
ENDTAB
  0
TABLE
  2
DIMSTYLE
 70
    1
  0
DIMSTYLE
  2
ISO-25
 70
    0
 40
1
 41
0.18
 42
0.0625
 43
0.38
 44
0.18
 45
0
 46
0
 47
0
 48
0
 49
1
140
0.18
141
0.09
142
0
143
25.4
144
1
145
0
146
1
147
0.09
 71
    0
 72
    0
 73
    0
 74
    1
 75
    0
 76
    0
 77
    0
 78
    0
170
    0
171
    2
172
    0
173
    0
174
    0
175
    0
176
    0
177
    0
178
    0
  0
DIMSTYLE
  2
STANDARD
 70
    0
 40
1
 41
0.18
 42
0.0625
 43
0.38
 44
0.18
 45
0
 46
0
 47
0
 48
0
 49
1
140
0.18
141
0.09
142
0
143
25.4
144
1
145
0
146
1
147
0.09
 71
    0
 72
    0
 73
    0
 74
    1
 75
    0
 76
    0
 77
    0
 78
    0
170
    0
171
    2
172
    0
173
    0
174
    0
175
    0
176
    0
177
    0
178
    0
  0
ENDTAB
  0
ENDSEC
  0
SECTION
  2
BLOCKS
  0
BLOCK
  8
0
  2
$MODEL_SPACE
 70
    0
 10
0
 20
0
 30
0
  3
$MODEL_SPACE
  1

  0
ENDBLK
  8
0
  0
BLOCK
  8
0
  2
$PAPER_SPACE
 70
    0
 10
0
 20
0
 30
0
  3
$PAPER_SPACE
  1

  0
ENDBLK
  8
0
  0
BLOCK
  8
0
  2
*MODEL_SPACE
 70
   64
 10
0
 20
0
  3
*MODEL_SPACE
  1

  0
ENDBLK
  8
0
  0
BLOCK
  8
0
  2
*PAPER_SPACE0
 70
   64
 10
0
 20
0
  3
*PAPER_SPACE0
  1

  0
ENDBLK
  8
0
  0
BLOCK
  8
0
  2
*PAPER_SPACE
 70
   64
 10
0
 20
0
  3
*PAPER_SPACE
  1

  0
ENDBLK
  8
0
  0
BLOCK
  8
0
  2
BLOKO
 70
   66
 10
0
 20
0
  3
BLOKO
  1

  0
LINE
  5
31
  8
TAVOLO 3
  6
BYLAYER
 62
  256
 10
271.5499812899507
 20
828.2739297568769
 11
398.7234623457189
 21
91.25601042459311
  0
LINE
  5
32
  8
TAVOLO 3
  6
BYLAYER
 62
  256
 10
398.7234623457189
 20
91.25601042459311
 11
-237.1440554753863
 21
167.4992462186237
  0
LINE
  5
33
  8
TAVOLO 3
  6
BYLAYER
 62
  256
 10
-237.1440554753863
 20
167.4992462186237
 11
-313.4481441088501
 21
752.0306939628463
  0
LINE
  5
34
  8
TAVOLO 3
  6
BYLAYER
 62
  256
 10
-313.4481441088501
 20
752.0306939628463
 11
-745.8380547266424
 21
777.4451125633605
  0
ENDBLK
  8
0
  0
BLOCK
  8
0
  2
CIRKLO_PUNKTOJ
 70
   64
 10
0
 20
0
  3
CIRKLO_PUNKTOJ
  1

  0
CIRCLE
  5
35
  8
TAVOLO 3
  6
BYLAYER
 62
  256
 10
0
 20
0
 40
130.0490046078758
  0
POINT
  5
36
  8
TAVOLO 3
  6
BYLAYER
 62
  256
 10
-72.12776981049683
 20
-10.06474101899221
  0
POINT
  5
37
  8
TAVOLO 3
  6
BYLAYER
 62
  256
 10
-35.36164146556985
 20
58.16075377925881
  0
POINT
  5
38
  8
TAVOLO 3
  6
BYLAYER
 62
  256
 10
-30.10935083439108
 20
-20.56094401411247
  0
POINT
  5
39
  8
TAVOLO 3
  6
BYLAYER
 62
  256
 10
-30.10935083439108
 20
16.17584161022387
  0
POINT
  5
3A
  8
TAVOLO 3
  6
BYLAYER
 62
  256
 10
32.91832459314901
 20
-10.06474101899221
  0
POINT
  5
3B
  8
TAVOLO 3
  6
BYLAYER
 62
  256
 10
11.90906814171467
 20
0.4315120704050059
  0
POINT
  5
3C
  8
TAVOLO 3
  6
BYLAYER
 62
  256
 10
17.16135877287888
 20
58.16075377925881
  0
POINT
  5
3D
  8
TAVOLO 3
  6
BYLAYER
 62
  256
 10
-93.13702626193117
 20
-46.80152664332854
  0
POINT
  5
3E
  8
TAVOLO 3
  6
BYLAYER
 62
  256
 10
69.68445293807599
 20
-46.80152664332854
  0
POINT
  5
3F
  8
TAVOLO 3
  6
BYLAYER
 62
  256
 10
-3.847803751792526
 20
-41.55340009862994
  0
POINT
  5
40
  8
TAVOLO 3
  6
BYLAYER
 62
  256
 10
106.4505812830175
 20
5.679638615103613
  0
POINT
  5
41
  8
TAVOLO 3
  6
BYLAYER
 62
  256
 10
-83.77055558058782
 20
22.38066858684761
  0
ENDBLK
  8
0
  0
ENDSEC
  0
SECTION
  2
ENTITIES
  0
LINE
  5
42
  8
TAVOLO 3
  6
BYLAYER
 62
  256
 10
370.8586116534307
 20
730.6303035220437
 11
450.0397564202603
 21
619.2192730768991
  0
ARC
  5
43
  8
TAVOLO 2
  6
BYLAYER
 62
  256
 10
1061.049489167742
 20
1142.369513054377
 40
830.6389483702103
 50
264.9225334366026
 51
117.2958904559565
  0
POLYLINE
  5
44
  8
TAVOLO 3
  6
BYLAYER
 62
  256
 66
    1
 10
0
 20
0
 30
0
 70
    1
210
0
220
0
230
0.9999999999999999
  0
VERTEX
  5
45
  8
TAVOLO 3
  6
BYLAYER
 62
  256
 10
2311.301177805661
 20
3260.062676885747
 30
0
  0
VERTEX
  5
46
  8
TAVOLO 3
  6
BYLAYER
 62
  256
 10
2303.832507977357
 20
3228.960752144527
 30
0
  0
VERTEX
  5
47
  8
TAVOLO 3
  6
BYLAYER
 62
  256
 10
2299.323003098566
 20
3197.076597058932
 30
0
  0
VERTEX
  5
48
  8
TAVOLO 3
  6
BYLAYER
 62
  256
 10
2297.783526961527
 20
3164.487023351284
 30
0
  0
VERTEX
  5
49
  8
TAVOLO 3
  6
BYLAYER
 62
  256
 10
2299.217788299094
 20
3131.270542159155
 30
0
  0
VERTEX
  5
4A
  8
TAVOLO 3
  6
BYLAYER
 62
  256
 10
2303.622331850081
 20
3097.507174895158
 30
0
  0
VERTEX
  5
4B
  8
TAVOLO 3
  6
BYLAYER
 62
  256
 10
2310.986546683278
 20
3063.278260468353
 30
0
  0
VERTEX
  5
4C
  8
TAVOLO 3
  6
BYLAYER
 62
  256
 10
2321.292691760127
 20
3028.666259331691
 30
0
  0
VERTEX
  5
4D
  8
TAVOLO 3
  6
BYLAYER
 62
  256
 10
2334.515938674423
 20
2993.754554827567
 30
0
  0
VERTEX
  5
4E
  8
TAVOLO 3
  6
BYLAYER
 62
  256
 10
2350.624431466131
 20
2958.627252310032
 30
0
  0
VERTEX
  5
4F
  8
TAVOLO 3
  6
BYLAYER
 62
  256
 10
2369.579363365177
 20
2923.368976527642
 30
0
  0
VERTEX
  5
50
  8
TAVOLO 3
  6
BYLAYER
 62
  256
 10
2391.335070280364
 20
2888.064667755015
 30
0
  0
VERTEX
  5
51
  8
TAVOLO 3
  6
BYLAYER
 62
  256
 10
2415.839140808153
 20
2852.799377164278
 30
0
  0
VERTEX
  5
52
  8
TAVOLO 3
  6
BYLAYER
 62
  256
 10
2443.032542496344
 20
2817.658061929339
 30
0
  0
VERTEX
  5
53
  8
TAVOLO 3
  6
BYLAYER
 62
  256
 10
2472.849764058408
 20
2782.725380556612
 30
0
  0
VERTEX
  5
54
  8
TAVOLO 3
  6
BYLAYER
 62
  256
 10
2505.218973195921
 20
2748.085488935268
 30
0
  0
VERTEX
  5
55
  8
TAVOLO 3
  6
BYLAYER
 62
  256
 10
2540.062189648864
 20
2713.821837598317
 30
0
  0
VERTEX
  5
56
  8
TAVOLO 3
  6
BYLAYER
 62
  256
 10
2577.295473056895
 20
2680.016970682973
 30
0
  0
VERTEX
  5
57
  8
TAVOLO 3
  6
BYLAYER
 62
  256
 10
2616.829125179036
 20
2646.752327074591
 30
0
  0
VERTEX
  5
58
  8
TAVOLO 3
  6
BYLAYER
 62
  256
 10
2658.567905984584
 20
2614.108044213262
 30
0
  0
VERTEX
  5
59
  8
TAVOLO 3
  6
BYLAYER
 62
  256
 10
2702.411263094694
 20
2582.162765035701
 30
0
  0
VERTEX
  5
5A
  8
TAVOLO 3
  6
BYLAYER
 62
  256
 10
2748.253574021862
 20
2550.993448517523
 30
0
  0
VERTEX
  5
5B
  8
TAVOLO 3
  6
BYLAYER
 62
  256
 10
2795.984400623753
 20
2520.675184272328
 30
0
  0
VERTEX
  5
5C
  8
TAVOLO 3
  6
BYLAYER
 62
  256
 10
2845.488755158357
 20
2491.281011654251
 30
0
  0
VERTEX
  5
5D
  8
TAVOLO 3
  6
BYLAYER
 62
  256
 10
2896.64737729953
 20
2462.881743799753
 30
0
  0
VERTEX
  5
5E
  8
TAVOLO 3
  6
BYLAYER
 62
  256
 10
2949.337021445568
 20
2435.545797032579
 30
0
  0
VERTEX
  5
5F
  8
TAVOLO 3
  6
BYLAYER
 62
  256
 10
3003.430753628654
 20
2409.339026042835
 30
0
  0
VERTEX
  5
60
  8
TAVOLO 3
  6
BYLAYER
 62
  256
 10
3058.798257309911
 20
2384.324565237281
 30
0
  0
VERTEX
  5
61
  8
TAVOLO 3
  6
BYLAYER
 62
  256
 10
3115.306147323347
 20
2360.562676643002
 30
0
  0
VERTEX
  5
62
  8
TAVOLO 3
  6
BYLAYER
 62
  256
 10
3172.818291212415
 20
2338.110604730919
 30
0
  0
VERTEX
  5
63
  8
TAVOLO 3
  6
BYLAYER
 62
  256
 10
3231.196137185016
 20
2317.022438508838
 30
0
  0
VERTEX
  5
64
  8
TAVOLO 3
  6
BYLAYER
 62
  256
 10
3290.299047896908
 20
2297.348981216292
 30
0
  0
VERTEX
  5
65
  8
TAVOLO 3
  6
BYLAYER
 62
  256
 10
3349.984639259382
 20
2279.13762793509
 30
0
  0
VERTEX
  5
66
  8
TAVOLO 3
  6
BYLAYER
 62
  256
 10
3410.109123455004
 20
2262.432251410412
 30
0
  0
VERTEX
  5
67
  8
TAVOLO 3
  6
BYLAYER
 62
  256
 10
3470.527655335066
 20
2247.273096357527
 30
0
  0
VERTEX
  5
68
  8
TAVOLO 3
  6
BYLAYER
 62
  256
 10
3531.09468136423
 20
2233.696682508739
 30
0
  0
VERTEX
  5
69
  8
TAVOLO 3
  6
BYLAYER
 62
  256
 10
3591.664290271746
 20
2221.735716634166
 30
0
  0
VERTEX
  5
6A
  8
TAVOLO 3
  6
BYLAYER
 62
  256
 10
3652.090564564486
 20
2211.419013748255
 30
0
  0
VERTEX
  5
6B
  8
TAVOLO 3
  6
BYLAYER
 62
  256
 10
3712.22793205496
 20
2202.771427691895
 30
0
  0
VERTEX
  5
6C
  8
TAVOLO 3
  6
BYLAYER
 62
  256
 10
3771.931516557475
 20
2195.813791257336
 30
0
  0
VERTEX
  5
6D
  8
TAVOLO 3
  6
BYLAYER
 62
  256
 10
3831.057486907546
 20
2190.562866000164
 30
0
  0
VERTEX
  5
6E
  8
TAVOLO 3
  6
BYLAYER
 62
  256
 10
3889.463403463777
 20
2187.031301859251
 30
0
  0
VERTEX
  5
6F
  8
TAVOLO 3
  6
BYLAYER
 62
  256
 10
3947.00856125743
 20
2185.227606681941
 30
0
  0
VERTEX
  5
70
  8
TAVOLO 3
  6
BYLAYER
 62
  256
 10
4003.554328963019
 20
2185.156125727902
 30
0
  0
VERTEX
  5
71
  8
TAVOLO 3
  6
BYLAYER
 62
  256
 10
4058.964482873317
 20
2186.817031201012
 30
0
  0
VERTEX
  5
72
  8
TAVOLO 3
  6
BYLAYER
 62
  256
 10
4113.105535074199
 20
2190.206321834508
 30
0
  0
VERTEX
  5
73
  8
TAVOLO 3
  6
BYLAYER
 62
  256
 10
4165.847055028717
 20
2195.315832530388
 30
0
  0
VERTEX
  5
74
  8
TAVOLO 3
  6
BYLAYER
 62
  256
 10
4217.061983795687
 20
2202.133254029846
 30
0
  0
VERTEX
  5
75
  8
TAVOLO 3
  6
BYLAYER
 62
  256
 10
4266.626940125812
 20
2210.642162567352
 30
0
  0
VERTEX
  5
76
  8
TAVOLO 3
  6
BYLAYER
 62
  256
 10
4314.422517697917
 20
2220.822059436949
 30
0
  0
VERTEX
  5
77
  8
TAVOLO 3
  6
BYLAYER
 62
  256
 10
4360.333572779232
 20
2232.648420375423
 30
0
  0
VERTEX
  5
78
  8
TAVOLO 3
  6
BYLAYER
 62
  256
 10
4404.249501616731
 20
2246.092754643407
 30
0
  0
VERTEX
  5
79
  8
TAVOLO 3
  6
BYLAYER
 62
  256
 10
4446.064506891265
 20
2261.122673662065
 30
0
  0
VERTEX
  5
7A
  8
TAVOLO 3
  6
BYLAYER
 62
  256
 10
4485.677852592566
 20
2277.701969040015
 30
0
  0
VERTEX
  5
7B
  8
TAVOLO 3
  6
BYLAYER
 62
  256
 10
4522.994106701119
 20
2295.790699802517
 30
0
  0
VERTEX
  5
7C
  8
TAVOLO 3
  6
BYLAYER
 62
  256
 10
4557.92337109226
 20
2315.345288612779
 30
0
  0
VERTEX
  5
7D
  8
TAVOLO 3
  6
BYLAYER
 62
  256
 10
4590.381498108626
 20
2336.318626753577
 30
0
  0
VERTEX
  5
7E
  8
TAVOLO 3
  6
BYLAYER
 62
  256
 10
4620.290293279241
 20
2358.660187616282
 30
0
  0
VERTEX
  5
7F
  8
TAVOLO 3
  6
BYLAYER
 62
  256
 10
4647.577703696838
 20
2382.316148423886
 30
0
  0
VERTEX
  5
80
  8
TAVOLO 3
  6
BYLAYER
 62
  256
 10
4672.177991599625
 20
2407.229519894787
 30
0
  0
VERTEX
  5
81
  8
TAVOLO 3
  6
BYLAYER
 62
  256
 10
4694.031892739313
 20
2433.340283534957
 30
0
  0
VERTEX
  5
82
  8
TAVOLO 3
  6
BYLAYER
 62
  256
 10
4713.086759153883
 20
2460.585536227755
 30
0
  0
VERTEX
  5
83
  8
TAVOLO 3
  6
BYLAYER
 62
  256
 10
4729.29668600113
 20
2488.899641773041
 30
0
  0
VERTEX
  5
84
  8
TAVOLO 3
  6
BYLAYER
 62
  256
 10
4742.62262214746
 20
2518.214389010534
 30
0
  0
VERTEX
  5
85
  8
TAVOLO 3
  6
BYLAYER
 62
  256
 10
4753.03246424548
 20
2548.459156146469
 30
0
  0
VERTEX
  5
86
  8
TAVOLO 3
  6
BYLAYER
 62
  256
 10
4760.501134073783
 20
2579.56108088769
 30
0
  0
VERTEX
  5
87
  8
TAVOLO 3
  6
BYLAYER
 62
  256
 10
4765.010638952574
 20
2611.445235973285
 30
0
  0
VERTEX
  5
88
  8
TAVOLO 3
  6
BYLAYER
 62
  256
 10
4766.550115089614
 20
2644.034809680933
 30
0
  0
VERTEX
  5
89
  8
TAVOLO 3
  6
BYLAYER
 62
  256
 10
4765.115853752046
 20
2677.251290873061
 30
0
  0
VERTEX
  5
8A
  8
TAVOLO 3
  6
BYLAYER
 62
  256
 10
4760.711310201061
 20
2711.014658137059
 30
0
  0
VERTEX
  5
8B
  8
TAVOLO 3
  6
BYLAYER
 62
  256
 10
4753.347095367862
 20
2745.243572563864
 30
0
  0
VERTEX
  5
8C
  8
TAVOLO 3
  6
BYLAYER
 62
  256
 10
4743.040950291013
 20
2779.855573700526
 30
0
  0
VERTEX
  5
8D
  8
TAVOLO 3
  6
BYLAYER
 62
  256
 10
4729.817703376718
 20
2814.76727820465
 30
0
  0
VERTEX
  5
8E
  8
TAVOLO 3
  6
BYLAYER
 62
  256
 10
4713.70921058501
 20
2849.894580722184
 30
0
  0
VERTEX
  5
8F
  8
TAVOLO 3
  6
BYLAYER
 62
  256
 10
4694.754278685963
 20
2885.152856504575
 30
0
  0
VERTEX
  5
90
  8
TAVOLO 3
  6
BYLAYER
 62
  256
 10
4672.998571770777
 20
2920.457165277202
 30
0
  0
VERTEX
  5
91
  8
TAVOLO 3
  6
BYLAYER
 62
  256
 10
4648.494501242987
 20
2955.722455867938
 30
0
  0
VERTEX
  5
92
  8
TAVOLO 3
  6
BYLAYER
 62
  256
 10
4621.301099554797
 20
2990.863771102878
 30
0
  0
VERTEX
  5
93
  8
TAVOLO 3
  6
BYLAYER
 62
  256
 10
4591.483877992733
 20
3025.796452475605
 30
0
  0
VERTEX
  5
94
  8
TAVOLO 3
  6
BYLAYER
 62
  256
 10
4559.114668855219
 20
3060.43634409695
 30
0
  0
VERTEX
  5
95
  8
TAVOLO 3
  6
BYLAYER
 62
  256
 10
4524.271452402277
 20
3094.699995433899
 30
0
  0
VERTEX
  5
96
  8
TAVOLO 3
  6
BYLAYER
 62
  256
 10
4487.038168994245
 20
3128.504862349243
 30
0
  0
VERTEX
  5
97
  8
TAVOLO 3
  6
BYLAYER
 62
  256
 10
4447.504516872104
 20
3161.769505957625
 30
0
  0
VERTEX
  5
98
  8
TAVOLO 3
  6
BYLAYER
 62
  256
 10
4405.765736066556
 20
3194.413788818954
 30
0
  0
VERTEX
  5
99
  8
TAVOLO 3
  6
BYLAYER
 62
  256
 10
4361.922378956447
 20
3226.359067996515
 30
0
  0
VERTEX
  5
9A
  8
TAVOLO 3
  6
BYLAYER
 62
  256
 10
4316.080068029279
 20
3257.528384514694
 30
0
  0
VERTEX
  5
9B
  8
TAVOLO 3
  6
BYLAYER
 62
  256
 10
4268.349241427388
 20
3287.846648759889
 30
0
  0
VERTEX
  5
9C
  8
TAVOLO 3
  6
BYLAYER
 62
  256
 10
4218.844886892784
 20
3317.240821377966
 30
0
  0
VERTEX
  5
9D
  8
TAVOLO 3
  6
BYLAYER
 62
  256
 10
4167.686264751612
 20
3345.640089232464
 30
0
  0
VERTEX
  5
9E
  8
TAVOLO 3
  6
BYLAYER
 62
  256
 10
4114.996620605573
 20
3372.976035999638
 30
0
  0
VERTEX
  5
9F
  8
TAVOLO 3
  6
BYLAYER
 62
  256
 10
4060.902888422486
 20
3399.182806989381
 30
0
  0
VERTEX
  5
A0
  8
TAVOLO 3
  6
BYLAYER
 62
  256
 10
4005.53538474123
 20
3424.197267794936
 30
0
  0
VERTEX
  5
A1
  8
TAVOLO 3
  6
BYLAYER
 62
  256
 10
3949.027494727794
 20
3447.959156389214
 30
0
  0
VERTEX
  5
A2
  8
TAVOLO 3
  6
BYLAYER
 62
  256
 10
3891.515350838727
 20
3470.411228301297
 30
0
  0
VERTEX
  5
A3
  8
TAVOLO 3
  6
BYLAYER
 62
  256
 10
3833.137504866124
 20
3491.499394523379
 30
0
  0
VERTEX
  5
A4
  8
TAVOLO 3
  6
BYLAYER
 62
  256
 10
3774.034594154232
 20
3511.172851815925
 30
0
  0
VERTEX
  5
A5
  8
TAVOLO 3
  6
BYLAYER
 62
  256
 10
3714.349002791759
 20
3529.384205097127
 30
0
  0
VERTEX
  5
A6
  8
TAVOLO 3
  6
BYLAYER
 62
  256
 10
3654.224518596136
 20
3546.089581621804
 30
0
  0
VERTEX
  5
A7
  8
TAVOLO 3
  6
BYLAYER
 62
  256
 10
3593.805986716075
 20
3561.24873667469
 30
0
  0
VERTEX
  5
A8
  8
TAVOLO 3
  6
BYLAYER
 62
  256
 10
3533.23896068691
 20
3574.825150523478
 30
0
  0
VERTEX
  5
A9
  8
TAVOLO 3
  6
BYLAYER
 62
  256
 10
3472.669351779394
 20
3586.786116398051
 30
0
  0
VERTEX
  5
AA
  8
TAVOLO 3
  6
BYLAYER
 62
  256
 10
3412.243077486655
 20
3597.102819283961
 30
0
  0
VERTEX
  5
AB
  8
TAVOLO 3
  6
BYLAYER
 62
  256
 10
3352.10570999618
 20
3605.750405340321
 30
0
  0
VERTEX
  5
AC
  8
TAVOLO 3
  6
BYLAYER
 62
  256
 10
3292.402125493666
 20
3612.708041774881
 30
0
  0
VERTEX
  5
AD
  8
TAVOLO 3
  6
BYLAYER
 62
  256
 10
3233.276155143594
 20
3617.958967032053
 30
0
  0
VERTEX
  5
AE
  8
TAVOLO 3
  6
BYLAYER
 62
  256
 10
3174.870238587363
 20
3621.490531172966
 30
0
  0
VERTEX
  5
AF
  8
TAVOLO 3
  6
BYLAYER
 62
  256
 10
3117.325080793711
 20
3623.294226350275
 30
0
  0
VERTEX
  5
B0
  8
TAVOLO 3
  6
BYLAYER
 62
  256
 10
3060.779313088122
 20
3623.365707304315
 30
0
  0
VERTEX
  5
B1
  8
TAVOLO 3
  6
BYLAYER
 62
  256
 10
3005.369159177824
 20
3621.704801831205
 30
0
  0
VERTEX
  5
B2
  8
TAVOLO 3
  6
BYLAYER
 62
  256
 10
2951.228106976942
 20
3618.315511197709
 30
0
  0
VERTEX
  5
B3
  8
TAVOLO 3
  6
BYLAYER
 62
  256
 10
2898.486587022424
 20
3613.206000501828
 30
0
  0
VERTEX
  5
B4
  8
TAVOLO 3
  6
BYLAYER
 62
  256
 10
2847.271658255454
 20
3606.388579002371
 30
0
  0
VERTEX
  5
B5
  8
TAVOLO 3
  6
BYLAYER
 62
  256
 10
2797.706701925328
 20
3597.879670464864
 30
0
  0
VERTEX
  5
B6
  8
TAVOLO 3
  6
BYLAYER
 62
  256
 10
2749.911124353223
 20
3587.699773595268
 30
0
  0
VERTEX
  5
B7
  8
TAVOLO 3
  6
BYLAYER
 62
  256
 10
2704.00006927191
 20
3575.873412656793
 30
0
  0
VERTEX
  5
B8
  8
TAVOLO 3
  6
BYLAYER
 62
  256
 10
2660.084140434409
 20
3562.42907838881
 30
0
  0
VERTEX
  5
B9
  8
TAVOLO 3
  6
BYLAYER
 62
  256
 10
2618.269135159875
 20
3547.399159370152
 30
0
  0
VERTEX
  5
BA
  8
TAVOLO 3
  6
BYLAYER
 62
  256
 10
2578.655789458575
 20
3530.819863992202
 30
0
  0
VERTEX
  5
BB
  8
TAVOLO 3
  6
BYLAYER
 62
  256
 10
2541.339535350022
 20
3512.7311332297
 30
0
  0
VERTEX
  5
BC
  8
TAVOLO 3
  6
BYLAYER
 62
  256
 10
2506.410270958882
 20
3493.176544419438
 30
0
  0
VERTEX
  5
BD
  8
TAVOLO 3
  6
BYLAYER
 62
  256
 10
2473.952143942515
 20
3472.20320627864
 30
0
  0
VERTEX
  5
BE
  8
TAVOLO 3
  6
BYLAYER
 62
  256
 10
2444.043348771899
 20
3449.861645415935
 30
0
  0
VERTEX
  5
BF
  8
TAVOLO 3
  6
BYLAYER
 62
  256
 10
2416.755938354303
 20
3426.205684608331
 30
0
  0
VERTEX
  5
C0
  8
TAVOLO 3
  6
BYLAYER
 62
  256
 10
2392.155650451516
 20
3401.29231313743
 30
0
  0
VERTEX
  5
C1
  8
TAVOLO 3
  6
BYLAYER
 62
  256
 10
2370.301749311828
 20
3375.18154949726
 30
0
  0
VERTEX
  5
C2
  8
TAVOLO 3
  6
BYLAYER
 62
  256
 10
2351.246882897258
 20
3347.936296804462
 30
0
  0
VERTEX
  5
C3
  8
TAVOLO 3
  6
BYLAYER
 62
  256
 10
2335.03695605001
 20
3319.622191259176
 30
0
  0
VERTEX
  5
C4
  8
TAVOLO 3
  6
BYLAYER
 62
  256
 10
2321.711019903681
 20
3290.307444021683
 30
0
  0
SEQEND
  5
C5
  8
TAVOLO 3
  6
BYLAYER
 62
  256
  0
POINT
  5
C6
  8
TAVOLO 3
  6
BYLAYER
 62
  256
 10
3385.39238329175
 20
3206.071452770084
  0
TEXT
  5
C7
  8
TAVOLO 3
  6
BYLAYER
 62
  256
 10
5881.252623040076
 20
1296.904699727624
 30
0
 40
100
  1
teksto simpla
 50
0
 41
1
 51
0
  7
STANDARD
 71
    0
210
0
220
0
230
1
  0
INSERT
  5
C8
  8
TAVOLO 3
  6
BYLAYER
 62
  256
  2
BLOKO
 10
3642.137357931104
 20
6066.049566611793
 30
0
 41
1
 42
1
 43
1
 50
0
 70
    1
 71
    1
 44
0
 45
0
  0
INSERT
  5
C9
  8
TAVOLO 3
  6
BYLAYER
 62
  256
  2
CIRKLO_PUNKTOJ
 10
8482.030567364651
 20
-1381.341268226861
 30
0
 41
1
 42
1
 43
1
 50
0
 70
    1
 71
    1
 44
0
 45
0
  0
INSERT
  5
CA
  8
TAVOLO 3
  6
BYLAYER
 62
  256
  2
CIRKLO_PUNKTOJ
 10
8482.030567364651
 20
-1582.968414015893
 30
0
 41
1
 42
1
 43
1
 50
0
 70
    1
 71
    1
 44
0
 45
0
  0
INSERT
  5
CB
  8
TAVOLO 3
  6
BYLAYER
 62
  256
  2
CIRKLO_PUNKTOJ
 10
8688.507233303753
 20
-1381.341268226861
 30
0
 41
1
 42
1
 43
1
 50
0
 70
    1
 71
    1
 44
0
 45
0
  0
INSERT
  5
CC
  8
TAVOLO 3
  6
BYLAYER
 62
  256
  2
CIRKLO_PUNKTOJ
 10
8688.507233303753
 20
-1582.968414015893
 30
0
 41
1
 42
1
 43
1
 50
0
 70
    1
 71
    1
 44
0
 45
0
  0
INSERT
  5
CD
  8
TAVOLO 3
  6
BYLAYER
 62
  256
  2
CIRKLO_PUNKTOJ
 10
8894.983899242856
 20
-1381.341268226861
 30
0
 41
1
 42
1
 43
1
 50
0
 70
    1
 71
    1
 44
0
 45
0
  0
INSERT
  5
CE
  8
TAVOLO 3
  6
BYLAYER
 62
  256
  2
CIRKLO_PUNKTOJ
 10
8894.983899242856
 20
-1582.968414015893
 30
0
 41
1
 42
1
 43
1
 50
0
 70
    1
 71
    1
 44
0
 45
0
  0
INSERT
  5
CF
  8
TAVOLO 3
  6
BYLAYER
 62
  256
  2
CIRKLO_PUNKTOJ
 10
9101.460565181958
 20
-1381.341268226861
 30
0
 41
1
 42
1
 43
1
 50
0
 70
    1
 71
    1
 44
0
 45
0
  0
INSERT
  5
D0
  8
TAVOLO 3
  6
BYLAYER
 62
  256
  2
CIRKLO_PUNKTOJ
 10
9101.460565181958
 20
-1582.968414015893
 30
0
 41
1
 42
1
 43
1
 50
0
 70
    1
 71
    1
 44
0
 45
0
  0
LINE
  5
D1
  8
TAVOLO 3
  6
BYLAYER
 62
  256
 10
8445.647190576812
 20
104.6775475821341
 11
8025.993874877313
 21
-346.8962774037645
  0
LINE
  5
D2
  8
TAVOLO 3
  6
BYLAYER
 62
  256
 10
8735.804242404512
 20
81.17005841116043
 11
8316.150926705013
 21
-370.4037665747383
  0
LINE
  5
D3
  8
TAVOLO 3
  6
BYLAYER
 62
  256
 10
9049.487506137855
 20
73.33421198940778
 11
8629.834190438356
 21
-378.2396129964909
  0
LINE
  5
D4
  8
TAVOLO 3
  6
BYLAYER
 62
  256
 10
9276.907961574951
 20
73.33421198940778
 11
8857.254645875451
 21
-378.2396129964909
  0
LINE
  5
D5
  8
TAVOLO 3
  6
BYLAYER
 62
  256
 10
10351.27317273602
 20
49.82672281842679
 11
9931.619857036523
 21
-401.7471021674719
  0
LINE
  5
D6
  8
TAVOLO 3
  6
BYLAYER
 62
  256
 10
10006.221563844
 20
57.66256924017944
 11
9586.568248144496
 21
-393.9112557457192
  0
LINE
  5
D7
  8
TAVOLO 3
  6
BYLAYER
 62
  256
 10
9692.538300110653
 20
73.33421198940778
 11
9272.884984411154
 21
-378.2396129964909
  0
ENDSEC
  0
EOF
